<svg width="10" height="10" viewBox="0 0 8 12" fill="none" xmlns="http://www.w3.org/2000/svg">
	<path d="M7.29999 3.5C7.29999 3.4 7.19998 3.20001 7.09998 3.10001C6.39998 1.50001 4.89998 0.899994 3.69998 0.899994C2.09998 0.899994 0.299976 1.99998 0.0999756 4.19998V4.69998C0.0999756 4.69998 0.0999756 4.9 0.0999756 5C0.199976 6.1 1.09998 7.19998 1.69998 8.19998C2.39998 9.29998 3.09998 10.4 3.69998 11.5C4.09998 10.8 4.49998 9.99999 4.99998 9.29999C5.09998 9.09999 5.19998 8.89998 5.39998 8.69998C5.49998 8.59998 5.59998 8.39999 5.69998 8.29999C6.39998 7.09999 7.39998 5.80001 7.39998 4.60001V4.10001C7.49998 4.00001 7.29999 3.5 7.29999 3.5ZM3.79999 5.69998C3.29999 5.69998 2.79998 5.49999 2.59998 4.79999C2.59998 4.69999 2.59998 4.5 2.59998 4.5V4.19998C2.59998 3.39998 3.29998 3 3.89998 3C4.69998 3 5.19998 3.59999 5.19998 4.39999C5.19998 5.09999 4.59999 5.69998 3.79999 5.69998Z" fill="#71BDBD" />
</svg>