<svg width="11" height="9" viewBox="0 0 11 9" fill="none" xmlns="http://www.w3.org/2000/svg">
<path d="M1.79993 2.89999C1.89993 2.99999 2.29992 3.29998 2.89992 3.69998C3.49992 4.09998 3.99993 4.49998 4.29993 4.69998C4.29993 4.69998 4.39992 4.79999 4.49992 4.89999C4.59992 4.99999 4.69993 5.10001 4.79993 5.10001C4.89993 5.20001 4.99991 5.19999 5.09991 5.29999C5.19991 5.39999 5.29992 5.39999 5.39992 5.39999C5.49992 5.39999 5.59992 5.39999 5.69992 5.39999C5.79992 5.39999 5.89992 5.39999 5.99992 5.39999C6.09992 5.39999 6.19993 5.29999 6.29993 5.29999C6.39993 5.19999 6.49991 5.20001 6.59991 5.10001C6.69991 5.00001 6.79992 4.99999 6.89992 4.89999C6.99992 4.79999 7.09991 4.79998 7.09991 4.69998C7.39991 4.49998 8.29992 3.89999 9.69992 2.89999C9.99992 2.69999 10.1999 2.49998 10.3999 2.19998C10.5999 1.89998 10.6999 1.69999 10.6999 1.39999C10.6999 1.19999 10.5999 0.899988 10.3999 0.799988C10.1999 0.599988 9.99993 0.5 9.79993 0.5H1.69992C1.39992 0.5 1.19992 0.599988 0.999924 0.799988C0.799924 0.999988 0.799927 1.2 0.799927 1.5C0.799927 1.7 0.899915 1.99999 1.09991 2.29999C1.39991 2.59999 1.59993 2.79999 1.79993 2.89999Z" fill="#71BDBD"/>
<path d="M10.1999 3.5C8.99991 4.3 8.0999 4.99999 7.3999 5.39999C7.1999 5.59999 6.9999 5.69999 6.8999 5.79999C6.7999 5.89999 6.5999 6.00001 6.3999 6.10001C6.1999 6.20001 5.99991 6.19998 5.79991 6.19998C5.59991 6.19998 5.39991 6.20001 5.19991 6.10001C4.99991 6.00001 4.79991 5.89999 4.69991 5.79999C4.59991 5.69999 4.39991 5.59999 4.19991 5.39999C3.69991 4.99999 2.79991 4.4 1.49991 3.5C1.29991 3.4 1.0999 3.2 0.899902 3V7.39999C0.899902 7.59999 0.999905 7.9 1.19991 8C1.39991 8.2 1.59991 8.29999 1.79991 8.29999H9.8999C10.0999 8.29999 10.3999 8.2 10.4999 8C10.6999 7.8 10.7999 7.59999 10.7999 7.39999V3C10.5999 3.2 10.3999 3.4 10.1999 3.5Z" fill="#71BDBD"/>
</svg>
