<svg width="10" height="10" viewBox="0 0 10 10" fill="none" xmlns="http://www.w3.org/2000/svg">
<path d="M9.29993 7.5C9.29993 7.6 9.29992 7.79999 9.19992 7.89999L7.89992 9.19998C7.79992 9.29998 7.79992 9.29999 7.69992 9.39999C7.59992 9.49999 7.49992 9.5 7.39992 9.5C7.39992 9.5 7.39993 9.5 7.29993 9.5H7.19992C7.09992 9.5 6.89991 9.49999 6.59991 9.39999C6.29991 9.39999 5.99991 9.30001 5.59991 9.10001C5.19991 8.90001 4.79993 8.69999 4.29993 8.39999C3.79993 8.09999 3.29992 7.60001 2.69992 7.10001C2.29992 6.70001 1.89991 6.19999 1.59991 5.79999C1.29991 5.39999 1.09992 4.99998 0.899918 4.69998C0.699918 4.39998 0.599924 4.09999 0.499924 3.79999C0.399924 3.49999 0.399927 3.30001 0.299927 3.10001C0.299927 2.90001 0.299927 2.70001 0.299927 2.60001C0.299927 2.50001 0.299927 2.39999 0.299927 2.39999C0.299927 2.29999 0.299918 2.20001 0.399918 2.10001C0.399918 2.00001 0.499915 1.89999 0.599915 1.89999L1.89992 0.600006C1.99992 0.500006 2.09992 0.5 2.19992 0.5C2.29992 0.5 2.39992 0.500006 2.39992 0.600006C2.49992 0.600006 2.49991 0.699988 2.59991 0.799988L3.59991 2.69998C3.69991 2.79998 3.69991 2.9 3.59991 3C3.59991 3.1 3.49992 3.19999 3.39992 3.29999L2.89992 3.79999C2.89992 3.79999 2.89992 3.79999 2.89992 3.89999V4C2.89992 4.1 2.99991 4.3 3.09991 4.5C3.19991 4.7 3.29992 4.80001 3.49992 5.10001C3.69992 5.30001 3.89992 5.59999 4.19992 5.89999C4.49992 6.19999 4.69992 6.40001 4.99992 6.60001C5.19992 6.80001 5.39991 6.9 5.59991 7C5.69991 7.1 5.89992 7.10001 5.89992 7.10001H5.99992C5.99992 7.10001 5.99991 7.10001 6.09991 7.10001C6.09991 7.10001 6.09992 7.10001 6.19992 7.10001L6.69992 6.60001C6.79992 6.50001 6.89991 6.39999 7.09991 6.39999C7.19991 6.39999 7.29992 6.4 7.39992 6.5L9.19992 7.60001C9.19992 7.30001 9.29993 7.4 9.29993 7.5Z" fill="#71BDBD"/>
</svg>
